<mxfile host="app.diagrams.net" modified="2021-10-18T04:31:31.857Z" agent="5.0 (X11; Linux x86_64) AppleWebKit/537.36 (KHTML, like Gecko) Chrome/93.0.4577.63 Safari/537.36" etag="QqHNRNZU6lUTFy0z2eK5" version="15.5.0" type="github">
  <diagram name="Page-1" id="74e2e168-ea6b-b213-b513-2b3c1d86103e">
    <mxGraphModel dx="713" dy="403" grid="1" gridSize="10" guides="1" tooltips="1" connect="1" arrows="1" fold="1" page="1" pageScale="1" pageWidth="1100" pageHeight="850" background="none" math="0" shadow="0">
      <root>
        <mxCell id="0" />
        <mxCell id="1" parent="0" />
        <mxCell id="77e6c97f196da883-1" value="" style="swimlane;html=1;childLayout=stackLayout;startSize=20;rounded=0;shadow=0;labelBackgroundColor=none;strokeWidth=1;fontFamily=Verdana;fontSize=8;align=center;" parent="1" vertex="1">
          <mxGeometry x="200" y="30" width="700" height="670" as="geometry" />
        </mxCell>
        <mxCell id="77e6c97f196da883-2" value="Planeación" style="swimlane;html=1;startSize=20;" parent="77e6c97f196da883-1" vertex="1">
          <mxGeometry y="20" width="160" height="650" as="geometry" />
        </mxCell>
        <mxCell id="3z88zi0aTK2wNDZ8og9t-6" style="edgeStyle=orthogonalEdgeStyle;rounded=0;orthogonalLoop=1;jettySize=auto;html=1;fontSize=12;" edge="1" parent="77e6c97f196da883-2" source="77e6c97f196da883-8" target="3z88zi0aTK2wNDZ8og9t-1">
          <mxGeometry relative="1" as="geometry" />
        </mxCell>
        <mxCell id="77e6c97f196da883-8" value="Plan de&amp;nbsp; Desarrollo" style="rounded=1;whiteSpace=wrap;html=1;shadow=0;labelBackgroundColor=none;strokeWidth=1;fontFamily=Verdana;fontSize=12;align=center;" parent="77e6c97f196da883-2" vertex="1">
          <mxGeometry x="30" y="60" width="100" height="60" as="geometry" />
        </mxCell>
        <mxCell id="3z88zi0aTK2wNDZ8og9t-7" style="edgeStyle=orthogonalEdgeStyle;rounded=0;orthogonalLoop=1;jettySize=auto;html=1;entryX=0.5;entryY=0;entryDx=0;entryDy=0;fontSize=12;" edge="1" parent="77e6c97f196da883-2" source="3z88zi0aTK2wNDZ8og9t-1" target="3z88zi0aTK2wNDZ8og9t-2">
          <mxGeometry relative="1" as="geometry" />
        </mxCell>
        <mxCell id="3z88zi0aTK2wNDZ8og9t-1" value="Desgloce de trabajo" style="rounded=1;whiteSpace=wrap;html=1;shadow=0;labelBackgroundColor=none;strokeWidth=1;fontFamily=Verdana;fontSize=12;align=center;" vertex="1" parent="77e6c97f196da883-2">
          <mxGeometry x="30" y="160" width="100" height="60" as="geometry" />
        </mxCell>
        <mxCell id="3z88zi0aTK2wNDZ8og9t-8" style="edgeStyle=orthogonalEdgeStyle;rounded=0;orthogonalLoop=1;jettySize=auto;html=1;entryX=0.5;entryY=0;entryDx=0;entryDy=0;fontSize=12;" edge="1" parent="77e6c97f196da883-2" source="3z88zi0aTK2wNDZ8og9t-2" target="3z88zi0aTK2wNDZ8og9t-3">
          <mxGeometry relative="1" as="geometry" />
        </mxCell>
        <mxCell id="3z88zi0aTK2wNDZ8og9t-2" value="Proceso de desarrollo" style="rounded=1;whiteSpace=wrap;html=1;shadow=0;labelBackgroundColor=none;strokeWidth=1;fontFamily=Verdana;fontSize=12;align=center;" vertex="1" parent="77e6c97f196da883-2">
          <mxGeometry x="30" y="260" width="100" height="60" as="geometry" />
        </mxCell>
        <mxCell id="3z88zi0aTK2wNDZ8og9t-9" style="edgeStyle=orthogonalEdgeStyle;rounded=0;orthogonalLoop=1;jettySize=auto;html=1;fontSize=12;" edge="1" parent="77e6c97f196da883-2" source="3z88zi0aTK2wNDZ8og9t-3" target="3z88zi0aTK2wNDZ8og9t-4">
          <mxGeometry relative="1" as="geometry" />
        </mxCell>
        <mxCell id="3z88zi0aTK2wNDZ8og9t-3" value="Plan de pruebas" style="rounded=1;whiteSpace=wrap;html=1;shadow=0;labelBackgroundColor=none;strokeWidth=1;fontFamily=Verdana;fontSize=12;align=center;" vertex="1" parent="77e6c97f196da883-2">
          <mxGeometry x="30" y="360" width="100" height="60" as="geometry" />
        </mxCell>
        <mxCell id="3z88zi0aTK2wNDZ8og9t-10" style="edgeStyle=orthogonalEdgeStyle;rounded=0;orthogonalLoop=1;jettySize=auto;html=1;entryX=0.5;entryY=0;entryDx=0;entryDy=0;fontSize=12;" edge="1" parent="77e6c97f196da883-2" source="3z88zi0aTK2wNDZ8og9t-4" target="3z88zi0aTK2wNDZ8og9t-5">
          <mxGeometry relative="1" as="geometry" />
        </mxCell>
        <mxCell id="3z88zi0aTK2wNDZ8og9t-4" value="Plan de control de cambios" style="rounded=1;whiteSpace=wrap;html=1;shadow=0;labelBackgroundColor=none;strokeWidth=1;fontFamily=Verdana;fontSize=12;align=center;" vertex="1" parent="77e6c97f196da883-2">
          <mxGeometry x="30" y="460" width="100" height="60" as="geometry" />
        </mxCell>
        <mxCell id="3z88zi0aTK2wNDZ8og9t-5" value="Plan de cierre de proyecto" style="rounded=1;whiteSpace=wrap;html=1;shadow=0;labelBackgroundColor=none;strokeWidth=1;fontFamily=Verdana;fontSize=12;align=center;" vertex="1" parent="77e6c97f196da883-2">
          <mxGeometry x="30" y="560" width="100" height="60" as="geometry" />
        </mxCell>
        <mxCell id="77e6c97f196da883-3" value="Desarrollo" style="swimlane;html=1;startSize=20;" parent="77e6c97f196da883-1" vertex="1">
          <mxGeometry x="160" y="20" width="160" height="650" as="geometry" />
        </mxCell>
        <mxCell id="3z88zi0aTK2wNDZ8og9t-15" style="edgeStyle=orthogonalEdgeStyle;rounded=0;orthogonalLoop=1;jettySize=auto;html=1;entryX=0.5;entryY=0;entryDx=0;entryDy=0;fontSize=12;" edge="1" parent="77e6c97f196da883-3" source="3z88zi0aTK2wNDZ8og9t-11" target="3z88zi0aTK2wNDZ8og9t-12">
          <mxGeometry relative="1" as="geometry" />
        </mxCell>
        <mxCell id="3z88zi0aTK2wNDZ8og9t-11" value="Creación de proyecto" style="rounded=1;whiteSpace=wrap;html=1;shadow=0;labelBackgroundColor=none;strokeWidth=1;fontFamily=Verdana;fontSize=12;align=center;" vertex="1" parent="77e6c97f196da883-3">
          <mxGeometry x="30" y="60" width="100" height="60" as="geometry" />
        </mxCell>
        <mxCell id="3z88zi0aTK2wNDZ8og9t-16" style="edgeStyle=orthogonalEdgeStyle;rounded=0;orthogonalLoop=1;jettySize=auto;html=1;entryX=0.5;entryY=0;entryDx=0;entryDy=0;fontSize=12;" edge="1" parent="77e6c97f196da883-3" source="3z88zi0aTK2wNDZ8og9t-12" target="3z88zi0aTK2wNDZ8og9t-13">
          <mxGeometry relative="1" as="geometry" />
        </mxCell>
        <mxCell id="3z88zi0aTK2wNDZ8og9t-12" value="Desarrollo del proyecto" style="rounded=1;whiteSpace=wrap;html=1;shadow=0;labelBackgroundColor=none;strokeWidth=1;fontFamily=Verdana;fontSize=12;align=center;" vertex="1" parent="77e6c97f196da883-3">
          <mxGeometry x="30" y="160" width="100" height="60" as="geometry" />
        </mxCell>
        <mxCell id="3z88zi0aTK2wNDZ8og9t-17" style="edgeStyle=orthogonalEdgeStyle;rounded=0;orthogonalLoop=1;jettySize=auto;html=1;entryX=0.5;entryY=0;entryDx=0;entryDy=0;fontSize=12;" edge="1" parent="77e6c97f196da883-3" source="3z88zi0aTK2wNDZ8og9t-13" target="3z88zi0aTK2wNDZ8og9t-14">
          <mxGeometry relative="1" as="geometry" />
        </mxCell>
        <mxCell id="3z88zi0aTK2wNDZ8og9t-13" value="Desarrollo del proyecto base" style="rounded=1;whiteSpace=wrap;html=1;shadow=0;labelBackgroundColor=none;strokeWidth=1;fontFamily=Verdana;fontSize=12;align=center;" vertex="1" parent="77e6c97f196da883-3">
          <mxGeometry x="30" y="260" width="100" height="60" as="geometry" />
        </mxCell>
        <mxCell id="3z88zi0aTK2wNDZ8og9t-14" value="Desarrollo de módulos" style="rounded=1;whiteSpace=wrap;html=1;shadow=0;labelBackgroundColor=none;strokeWidth=1;fontFamily=Verdana;fontSize=12;align=center;" vertex="1" parent="77e6c97f196da883-3">
          <mxGeometry x="30" y="360" width="100" height="60" as="geometry" />
        </mxCell>
        <mxCell id="77e6c97f196da883-4" value="Pruebas y control de cambios" style="swimlane;html=1;startSize=20;" parent="77e6c97f196da883-1" vertex="1">
          <mxGeometry x="320" y="20" width="220" height="650" as="geometry" />
        </mxCell>
        <mxCell id="3z88zi0aTK2wNDZ8og9t-21" style="edgeStyle=orthogonalEdgeStyle;rounded=0;orthogonalLoop=1;jettySize=auto;html=1;entryX=0.5;entryY=0;entryDx=0;entryDy=0;fontSize=12;" edge="1" parent="77e6c97f196da883-4" source="3z88zi0aTK2wNDZ8og9t-18" target="3z88zi0aTK2wNDZ8og9t-19">
          <mxGeometry relative="1" as="geometry" />
        </mxCell>
        <mxCell id="3z88zi0aTK2wNDZ8og9t-18" value="Pruebas de integración" style="rounded=1;whiteSpace=wrap;html=1;shadow=0;labelBackgroundColor=none;strokeWidth=1;fontFamily=Verdana;fontSize=12;align=center;" vertex="1" parent="77e6c97f196da883-4">
          <mxGeometry x="60" y="60" width="100" height="60" as="geometry" />
        </mxCell>
        <mxCell id="3z88zi0aTK2wNDZ8og9t-22" style="edgeStyle=orthogonalEdgeStyle;rounded=0;orthogonalLoop=1;jettySize=auto;html=1;entryX=0.5;entryY=0;entryDx=0;entryDy=0;fontSize=12;" edge="1" parent="77e6c97f196da883-4" source="3z88zi0aTK2wNDZ8og9t-19" target="3z88zi0aTK2wNDZ8og9t-20">
          <mxGeometry relative="1" as="geometry" />
        </mxCell>
        <mxCell id="3z88zi0aTK2wNDZ8og9t-19" value="Control de cambios" style="rounded=1;whiteSpace=wrap;html=1;shadow=0;labelBackgroundColor=none;strokeWidth=1;fontFamily=Verdana;fontSize=12;align=center;" vertex="1" parent="77e6c97f196da883-4">
          <mxGeometry x="60" y="160" width="100" height="60" as="geometry" />
        </mxCell>
        <mxCell id="3z88zi0aTK2wNDZ8og9t-20" value="Pruebas de aceptación" style="rounded=1;whiteSpace=wrap;html=1;shadow=0;labelBackgroundColor=none;strokeWidth=1;fontFamily=Verdana;fontSize=12;align=center;" vertex="1" parent="77e6c97f196da883-4">
          <mxGeometry x="60" y="260" width="100" height="60" as="geometry" />
        </mxCell>
        <mxCell id="77e6c97f196da883-5" value="Cierre del proyecto" style="swimlane;html=1;startSize=20;" parent="77e6c97f196da883-1" vertex="1">
          <mxGeometry x="540" y="20" width="160" height="650" as="geometry" />
        </mxCell>
        <mxCell id="3z88zi0aTK2wNDZ8og9t-23" value="Verificar cumplimiento de requisitos establecidos" style="rounded=1;whiteSpace=wrap;html=1;shadow=0;labelBackgroundColor=none;strokeWidth=1;fontFamily=Verdana;fontSize=12;align=center;" vertex="1" parent="77e6c97f196da883-5">
          <mxGeometry x="30" y="60" width="100" height="60" as="geometry" />
        </mxCell>
        <mxCell id="3z88zi0aTK2wNDZ8og9t-24" style="edgeStyle=orthogonalEdgeStyle;rounded=0;orthogonalLoop=1;jettySize=auto;html=1;entryX=0;entryY=0.5;entryDx=0;entryDy=0;fontSize=12;" edge="1" parent="77e6c97f196da883-1" source="3z88zi0aTK2wNDZ8og9t-20" target="3z88zi0aTK2wNDZ8og9t-23">
          <mxGeometry relative="1" as="geometry">
            <Array as="points">
              <mxPoint x="550" y="310" />
              <mxPoint x="550" y="110" />
            </Array>
          </mxGeometry>
        </mxCell>
        <mxCell id="3z88zi0aTK2wNDZ8og9t-25" style="edgeStyle=orthogonalEdgeStyle;rounded=0;orthogonalLoop=1;jettySize=auto;html=1;exitX=1;exitY=0.5;exitDx=0;exitDy=0;entryX=0;entryY=0.5;entryDx=0;entryDy=0;fontSize=12;" edge="1" parent="77e6c97f196da883-1" source="3z88zi0aTK2wNDZ8og9t-14" target="3z88zi0aTK2wNDZ8og9t-18">
          <mxGeometry relative="1" as="geometry" />
        </mxCell>
        <mxCell id="3z88zi0aTK2wNDZ8og9t-26" style="edgeStyle=orthogonalEdgeStyle;rounded=0;orthogonalLoop=1;jettySize=auto;html=1;entryX=0;entryY=0.5;entryDx=0;entryDy=0;fontSize=12;" edge="1" parent="77e6c97f196da883-1" source="3z88zi0aTK2wNDZ8og9t-5" target="3z88zi0aTK2wNDZ8og9t-11">
          <mxGeometry relative="1" as="geometry">
            <Array as="points">
              <mxPoint x="170" y="610" />
              <mxPoint x="170" y="110" />
            </Array>
          </mxGeometry>
        </mxCell>
      </root>
    </mxGraphModel>
  </diagram>
</mxfile>
